<svg version="1.2" xmlns="http://www.w3.org/2000/svg" viewBox="0 0 1556 1521" width="1556" height="1521">
	<title>Air_Canada_Logo-svg</title>
	<style>
		.s0 { fill: #f01428 } 
	</style>
	<g id="Layer">
		<path id="Layer" class="s0" d="m803.3 1082.2c0-51.2 22-58.5 73.1-29.3 87.6 51.2 175.3 95.1 175.3 95.1 0-29.3 29.2-51.2 80.3-36.6 51.1 14.6 102.2 21.9 102.2 21.9 0 0-29.2-65.8-43.8-95-21.9-51.2 0-80.4 21.9-87.8 0 0-29.2-21.9-51.1-36.5-43.8-29.3-36.5-65.8 7.3-80.4 58.4-29.3 138.8-58.5 138.8-58.5-22-14.7-51.2-51.2-22-102.4 29.3-43.9 80.4-109.7 80.4-109.7 0 0-80.4 0-138.8 0-51.1 0-65.7-43.9-65.7-73.1 0 0-80.3 58.5-138.8 95-51.1 36.6-94.9 0-87.6-58.4 14.6-87.8 21.9-190.2 21.9-190.2-29.2 29.3-80.3 22-109.5-21.9-36.6-73.1-73.1-160.9-73.1-160.9 0 0-36.5 87.8-73 160.9-21.9 43.9-73 51.2-102.2 29.3 0 0 7.3 102.3 21.9 190.1 7.3 51.1-36.5 87.7-87.7 51.1-58.4-36.5-146-95-146-95 0 29.2-14.6 65.8-65.8 73.1-58.4 0-138.7 0-138.7 0 0 0 51.1 65.8 80.3 109.7 29.2 43.9 0 87.7-21.9 102.4 0 0 73 36.5 138.8 58.5 43.8 21.9 58.4 51.1 7.3 80.4-14.6 14.6-51.2 36.5-51.2 36.5 29.3 7.4 51.2 36.6 29.3 87.8-14.7 29.2-43.9 95-43.9 95 0 0 51.2-14.6 102.3-21.9 51.1-14.6 73 14.6 80.3 36.6 0 0 87.7-51.2 175.3-95.1 43.8-29.2 73-14.6 73 29.3v124.3c0 73.1-14.6 146.2-36.5 190.1-328.6-36.6-606.2-299.8-606.2-650.8 0-358.3 299.5-650.7 671.9-650.7 372.5 0 671.9 292.4 671.9 650.7 0 336.4-262.9 614.2-598.8 650.8v87.7c394.3-36.6 701.1-351 701.1-738.5 0-416.8-350.6-745.8-781.5-745.8-423.6 0-774.1 329-774.1 738.5 0 358.3 270.2 658.1 628.1 723.9 58.4 14.6 94.9 21.9 131.4 58.5 36.5-73.2 43.8-219.4 43.8-299.8z"/>
	</g>
</svg>